# xmcd
#
# Track frame offsets: 
#        150
#        15039
#        32245
#        46394
#        63511
#        79507
#        94412
#        108772
#        124816
#        142495
#        157231
#        171939
#        186008
#
# Disc length: 2674 seconds
#
# Revision: 1
# Processed by: cddbd v1.5.2PL0 Copyright (c) Steve Scherf et al.
# Submitted via: ExactAudioCopy v0.95a3
#
DISCID=af0a700d
DTITLE=Monika Hildebrandt - Augenblicke
DYEAR=2007
DGENRE=Schlager
TTITLE0=Ich will mit Dir zu den Sternen
TTITLE1=Sogar am Nordpol blühen Rosen
TTITLE2=Ja Tausendmal Ja
TTITLE3=Du verleihst Mir Flügel
TTITLE4=Darum muss Ich Dich wiedersehn
TTITLE5=Du bist ein Teil von Mir
TTITLE6=Sag Mir dass Du Mich noch liebst
TTITLE7=LiebemMacht alles wieder gut
TTITLE8=Küss Mich wie der Sommerwind
TTITLE9=Tränen sind wie Rosen
TTITLE10=Für einen Augenblick
TTITLE11=Atlantis für Immer
TTITLE12=Ich muss Dich wiedersehn
EXTD=
EXTT0=
EXTT1=
EXTT2=
EXTT3=
EXTT4=
EXTT5=
EXTT6=
EXTT7=
EXTT8=
EXTT9=
EXTT10=
EXTT11=
EXTT12=
PLAYORDER=
